<svg width="28" height="28" viewBox="0 0 28 28" fill="none" xmlns="http://www.w3.org/2000/svg">
<path d="M14.4408 4.17166L14.2048 4.37553L14.2841 4.67714L14.6363 6.01692L13.7042 5.28978L13.3966 5.04987L13.0891 5.28978L12.157 6.01692L12.5092 4.67714L12.5885 4.37553L12.3525 4.17166L11.3023 3.26437L12.5581 3.22982L12.9152 3.21999L13.0217 2.879L13.3966 1.67789L13.7716 2.879L13.878 3.21999L14.2351 3.22982L15.4909 3.26437L14.4408 4.17166Z" fill="black"/>
<path d="M14.4408 4.17166L14.2048 4.37553L14.2841 4.67714L14.6363 6.01692L13.7042 5.28978L13.3966 5.04987L13.0891 5.28978L12.157 6.01692L12.5092 4.67714L12.5885 4.37553L12.3525 4.17166L11.3023 3.26437L12.5581 3.22982L12.9152 3.21999L13.0217 2.879L13.3966 1.67789L13.7716 2.879L13.878 3.21999L14.2351 3.22982L15.4909 3.26437L14.4408 4.17166Z" stroke="black"/>
<path d="M14.4408 4.17166L14.2048 4.37553L14.2841 4.67714L14.6363 6.01692L13.7042 5.28978L13.3966 5.04987L13.0891 5.28978L12.157 6.01692L12.5092 4.67714L12.5885 4.37553L12.3525 4.17166L11.3023 3.26437L12.5581 3.22982L12.9152 3.21999L13.0217 2.879L13.3966 1.67789L13.7716 2.879L13.878 3.21999L14.2351 3.22982L15.4909 3.26437L14.4408 4.17166Z" stroke="black" stroke-opacity="0.2"/>
<path d="M23.3549 10.4461L23.1205 10.6499L23.1993 10.9503L23.6575 12.6961L22.4143 11.7269L22.1069 11.4872L21.7995 11.7269L20.5563 12.6961L21.0145 10.9503L21.0933 10.6499L20.8589 10.4461L19.5036 9.26764L21.1521 9.21473L21.5076 9.20332L21.6134 8.86376L22.1069 7.28041L22.6004 8.86376L22.7062 9.20332L23.0617 9.21473L24.7102 9.26764L23.3549 10.4461Z" fill="black"/>
<path d="M23.3549 10.4461L23.1205 10.6499L23.1993 10.9503L23.6575 12.6961L22.4143 11.7269L22.1069 11.4872L21.7995 11.7269L20.5563 12.6961L21.0145 10.9503L21.0933 10.6499L20.8589 10.4461L19.5036 9.26764L21.1521 9.21473L21.5076 9.20332L21.6134 8.86376L22.1069 7.28041L22.6004 8.86376L22.7062 9.20332L23.0617 9.21473L24.7102 9.26764L23.3549 10.4461Z" stroke="black"/>
<path d="M23.3549 10.4461L23.1205 10.6499L23.1993 10.9503L23.6575 12.6961L22.4143 11.7269L22.1069 11.4872L21.7995 11.7269L20.5563 12.6961L21.0145 10.9503L21.0933 10.6499L20.8589 10.4461L19.5036 9.26764L21.1521 9.21473L21.5076 9.20332L21.6134 8.86376L22.1069 7.28041L22.6004 8.86376L22.7062 9.20332L23.0617 9.21473L24.7102 9.26764L23.3549 10.4461Z" stroke="black" stroke-opacity="0.2"/>
<path d="M8.16667 7.00005C8.16667 14.0934 13.9067 19.8334 21 19.8334C21.6183 19.8334 22.225 19.7867 22.82 19.7051C20.9417 22.5867 17.6983 24.5001 14 24.5001C8.20167 24.5001 3.5 19.7984 3.5 14.0001C3.5 10.3017 5.41333 7.05839 8.295 5.18005C8.21333 5.77505 8.16667 6.38172 8.16667 7.00005Z" stroke="black" stroke-width="2" stroke-linecap="round" stroke-linejoin="round"/>
</svg>
