<svg width="28" height="28" viewBox="0 0 28 28" fill="none" xmlns="http://www.w3.org/2000/svg">
<path d="M14 10C14.7911 10 15.5645 10.2346 16.2223 10.6741C16.8801 11.1136 17.3928 11.7384 17.6955 12.4693C17.9983 13.2002 18.0775 14.0044 17.9231 14.7804C17.7688 15.5563 17.3878 16.269 16.8284 16.8284C16.269 17.3878 15.5563 17.7688 14.7804 17.9231C14.0044 18.0775 13.2002 17.9983 12.4693 17.6955C11.7384 17.3928 11.1136 16.8801 10.6741 16.2223C10.2346 15.5645 10 14.7911 10 14C10.0013 12.9395 10.4232 11.9229 11.173 11.173C11.9229 10.4232 12.9395 10.0013 14 10ZM14 8C12.8133 8 11.6533 8.35189 10.6666 9.01118C9.67988 9.67047 8.91085 10.6075 8.45672 11.7039C8.0026 12.8003 7.88378 14.0067 8.11529 15.1705C8.3468 16.3344 8.91824 17.4035 9.75736 18.2426C10.5965 19.0818 11.6656 19.6532 12.8295 19.8847C13.9933 20.1162 15.1997 19.9974 16.2961 19.5433C17.3925 19.0892 18.3295 18.3201 18.9888 17.3334C19.6481 16.3467 20 15.1867 20 14C20 12.4087 19.3679 10.8826 18.2426 9.75736C17.1174 8.63214 15.5913 8 14 8ZM3.394 4.808L4.81 3.394L8.315 6.9L6.9 8.314L3.394 4.808ZM0 13H5V15H0V13ZM3.394 23.193L6.9 19.687L8.314 21.101L4.809 24.607L3.394 23.193ZM13 23H15V28H13V23ZM19.687 21.1L21.101 19.686L24.607 23.192L23.193 24.606L19.687 21.1ZM23 13H28V15H23V13ZM19.687 6.899L23.193 3.393L24.607 4.807L21.101 8.313L19.687 6.899ZM13 0H15V5H13V0Z" fill="black"/>
</svg>
